<svg width="250" height="250" viewBox="0 0 250 250" fill="none" xmlns="http://www.w3.org/2000/svg">
<path opacity="0.75" d="M212.266 130.234L125 218.75L37.7343 130.234C28.5761 121.076 23.431 108.655 23.431 95.7031C23.431 82.7514 28.5761 70.3301 37.7343 61.1718C46.8926 52.0136 59.3139 46.8685 72.2656 46.8685C85.2173 46.8685 97.6386 52.0136 106.797 61.1718L125 78.125L143.203 61.1718C147.738 56.6371 153.121 53.04 159.046 50.5858C164.971 48.1317 171.321 46.8685 177.734 46.8685C184.147 46.8685 190.498 48.1317 196.423 50.5858C202.347 53.04 207.731 56.6371 212.266 61.1718C216.8 65.7066 220.397 71.09 222.852 77.0149C225.306 82.9398 226.569 89.29 226.569 95.7031C226.569 102.116 225.306 108.466 222.852 114.391C220.397 120.316 216.8 125.7 212.266 130.234Z" fill="#A230C7"/>
<path d="M217.773 55.6641C207.16 45.0767 192.785 39.1229 177.794 39.1046C162.802 39.0863 148.413 45.005 137.773 55.5664L125 67.4316L112.217 55.5273C101.58 44.92 87.1644 38.9726 72.1423 38.9937C57.1201 39.0148 42.7216 45.0025 32.1143 55.6396C21.5069 66.2768 15.5596 80.692 15.5806 95.7142C15.6017 110.736 21.5894 125.135 32.2266 135.742L119.482 224.277C120.209 225.016 121.076 225.602 122.031 226.002C122.987 226.402 124.013 226.608 125.049 226.608C126.085 226.608 127.11 226.402 128.066 226.002C129.022 225.602 129.888 225.016 130.615 224.277L217.773 135.742C228.388 125.121 234.351 110.719 234.351 95.7031C234.351 80.6869 228.388 66.2853 217.773 55.6641ZM206.689 124.766L125 207.617L43.2617 124.687C35.5694 116.995 31.2479 106.562 31.2479 95.6836C31.2479 84.805 35.5694 74.372 43.2617 66.6797C50.954 58.9874 61.387 54.6659 72.2656 54.6659C83.1442 54.6659 93.5772 58.9874 101.27 66.6797L101.465 66.875L119.678 83.8184C121.123 85.1638 123.025 85.9117 125 85.9117C126.975 85.9117 128.877 85.1638 130.322 83.8184L148.535 66.875L148.73 66.6797C156.428 58.9925 166.864 54.6781 177.742 54.6854C188.621 54.6927 199.051 59.0212 206.738 66.7187C214.425 74.4162 218.74 84.8522 218.733 95.7307C218.725 106.609 214.397 117.039 206.699 124.727L206.689 124.766Z" fill="#343330"/>
<path opacity="0.2" d="M202.643 86.2683C204.753 84.1583 205.939 81.2965 205.939 78.3124C205.939 75.3284 204.753 72.4666 202.643 70.3566C201.599 69.3118 200.358 68.483 198.993 67.9176C197.628 67.3522 196.165 67.0612 194.688 67.0612C191.703 67.0612 188.842 68.2466 186.732 70.3566L175 82.0917L190.908 97.9999L202.643 86.2683Z" fill="#343330"/>
<path opacity="0.2" d="M147.357 109.732C145.247 111.842 144.061 114.703 144.061 117.688C144.061 119.165 144.352 120.628 144.918 121.993C145.483 123.358 146.312 124.599 147.357 125.643C148.401 126.688 149.642 127.517 151.007 128.082C152.372 128.648 153.835 128.939 155.312 128.939C158.296 128.939 161.158 127.753 163.268 125.643L175 113.908L159.092 98L147.357 109.732Z" fill="#343330"/>
<path opacity="0.2" d="M163.268 70.3566C161.158 68.2466 158.296 67.0612 155.312 67.0612C152.328 67.0612 149.467 68.2466 147.357 70.3566C145.247 72.4666 144.061 75.3284 144.061 78.3124C144.061 81.2965 145.247 84.1583 147.357 86.2683L159.092 97.9999L175 82.0917L163.268 70.3566Z" fill="white"/>
<path opacity="0.2" d="M190.908 98L175 113.908L186.732 125.643C188.842 127.753 191.703 128.939 194.688 128.939C197.672 128.939 200.533 127.753 202.643 125.643C204.753 123.533 205.939 120.672 205.939 117.688C205.939 114.703 204.753 111.842 202.643 109.732L190.908 98Z" fill="white"/>
<path d="M147.357 86.2683C145.247 84.1583 144.061 81.2965 144.061 78.3124C144.061 75.3284 145.247 72.4666 147.357 70.3566C149.467 68.2466 152.328 67.0612 155.312 67.0612C158.296 67.0612 161.158 68.2466 163.268 70.3566L202.643 109.732C204.753 111.842 205.939 114.703 205.939 117.687C205.939 120.671 204.753 123.533 202.643 125.643C200.533 127.753 197.671 128.939 194.687 128.939C191.703 128.939 188.842 127.753 186.732 125.643L147.357 86.2683Z" stroke="white" stroke-width="2" stroke-linecap="round" stroke-linejoin="round"/>
<path d="M186.732 70.3566C188.842 68.2466 191.703 67.0612 194.687 67.0612C196.165 67.0612 197.628 67.3522 198.993 67.9176C200.358 68.483 201.599 69.3118 202.643 70.3566C203.688 71.4014 204.517 72.6417 205.082 74.0068C205.648 75.3718 205.939 76.8349 205.939 78.3124C205.939 79.79 205.648 81.2531 205.082 82.6181C204.517 83.9832 203.688 85.2235 202.643 86.2683L163.268 125.643C162.224 126.688 160.983 127.517 159.618 128.082C158.253 128.648 156.79 128.939 155.312 128.939C153.835 128.939 152.372 128.648 151.007 128.082C149.642 127.517 148.401 126.688 147.357 125.643C145.247 123.533 144.061 120.671 144.061 117.687C144.061 114.703 145.247 111.842 147.357 109.732L186.732 70.3566Z" stroke="white" stroke-width="2" stroke-linecap="round" stroke-linejoin="round"/>
<path opacity="0.5" d="M175 99.4062C175.777 99.4062 176.406 98.7767 176.406 98C176.406 97.2233 175.777 96.5938 175 96.5938C174.223 96.5938 173.594 97.2233 173.594 98C173.594 98.7767 174.223 99.4062 175 99.4062Z" stroke="#343330" stroke-width="2" stroke-linecap="round" stroke-linejoin="round"/>
</svg>
