<svg width="338" height="108" viewBox="0 0 338 108" fill="none" xmlns="http://www.w3.org/2000/svg">
<g filter="url(#filter0_d_38_5596)">
<rect x="4" width="330" height="100" rx="20" fill="#ECE6F0"/>
<rect x="5" y="1" width="328" height="98" rx="19" stroke="black" stroke-width="2"/>
</g>
<path opacity="0.5" d="M50 61.9316L60.6875 68.5039C60.9648 68.6722 61.2858 68.7546 61.6099 68.7405C61.9339 68.7265 62.2466 68.6167 62.5083 68.425C62.77 68.2334 62.969 67.9684 63.0802 67.6637C63.1913 67.3589 63.2097 67.028 63.1328 66.7129L60.2266 54.4492L69.7383 46.2461C69.9808 46.0331 70.1557 45.7538 70.2412 45.4427C70.3268 45.1315 70.3194 44.802 70.2199 44.495C70.1204 44.188 69.9332 43.9169 69.6813 43.715C69.4295 43.5132 69.1241 43.3896 68.8027 43.3594L56.3203 42.3437L51.5117 30.7031C51.3891 30.4028 51.1799 30.1458 50.9106 29.9649C50.6414 29.784 50.3244 29.6874 50 29.6874C49.6756 29.6874 49.3586 29.784 49.0894 29.9649C48.8201 30.1458 48.6109 30.4028 48.4883 30.7031L43.6797 42.3437L31.1973 43.3594C30.8738 43.3878 30.5658 43.5109 30.3119 43.7133C30.0579 43.9157 29.8693 44.1885 29.7694 44.4975C29.6696 44.8065 29.6631 45.1381 29.7506 45.4509C29.8382 45.7636 30.016 46.0436 30.2617 46.2558L39.7734 54.459L36.8672 66.7129C36.7904 67.028 36.8087 67.3589 36.9198 67.6637C37.031 67.9684 37.23 68.2334 37.4917 68.425C37.7534 68.6167 38.0661 68.7265 38.3902 68.7405C38.7142 68.7546 39.0352 68.6722 39.3125 68.5039L50 61.9316Z" fill="#A230C7"/>
<path d="M50 61.9316L60.6875 68.5039C60.9648 68.6722 61.2858 68.7546 61.6099 68.7405C61.9339 68.7265 62.2466 68.6167 62.5083 68.425C62.77 68.2334 62.969 67.9684 63.0802 67.6637C63.1913 67.3589 63.2097 67.028 63.1328 66.7129L60.2266 54.4492L69.7383 46.2461C69.9808 46.0331 70.1557 45.7538 70.2412 45.4427C70.3268 45.1315 70.3194 44.802 70.2199 44.495C70.1204 44.188 69.9332 43.9169 69.6813 43.715C69.4295 43.5132 69.1241 43.3896 68.8027 43.3594L56.3203 42.3437L51.5117 30.7031C51.3891 30.4028 51.1799 30.1458 50.9106 29.9649C50.6414 29.784 50.3244 29.6874 50 29.6874C49.6756 29.6874 49.3586 29.784 49.0894 29.9649C48.8201 30.1458 48.6109 30.4028 48.4883 30.7031L43.6797 42.3437L31.1973 43.3594C30.8738 43.3878 30.5658 43.5109 30.3119 43.7133C30.0579 43.9157 29.8693 44.1885 29.7694 44.4975C29.6696 44.8065 29.6631 45.1381 29.7506 45.4509C29.8382 45.7636 30.016 46.0436 30.2617 46.2558L39.7734 54.459L36.8672 66.7129C36.7904 67.028 36.8087 67.3589 36.9198 67.6637C37.031 67.9684 37.23 68.2334 37.4917 68.425C37.7534 68.6167 38.0661 68.7265 38.3902 68.7405C38.7142 68.7546 39.0352 68.6722 39.3125 68.5039L50 61.9316Z" stroke="#343330" stroke-width="2" stroke-linecap="round" stroke-linejoin="round"/>
<path d="M119.865 58V39.0909H126.956C128.409 39.0909 129.627 39.3617 130.612 39.9034C131.603 40.4451 132.351 41.1899 132.856 42.1378C133.367 43.0795 133.622 44.1506 133.622 45.3509C133.622 46.5634 133.367 47.6406 132.856 48.5824C132.345 49.5241 131.591 50.2659 130.594 50.8075C129.597 51.343 128.369 51.6108 126.91 51.6108H122.21V48.7947H126.448C127.298 48.7947 127.993 48.647 128.535 48.3516C129.076 48.0561 129.477 47.6499 129.735 47.1328C130 46.6158 130.132 46.0218 130.132 45.3509C130.132 44.6799 130 44.089 129.735 43.5781C129.477 43.0672 129.073 42.6702 128.526 42.3871C127.984 42.0978 127.285 41.9531 126.43 41.9531H123.29V58H119.865ZM135.93 58V43.8182H139.171V46.1818H139.318C139.577 45.3632 140.02 44.7322 140.648 44.2891C141.282 43.8397 142.005 43.6151 142.818 43.6151C143.002 43.6151 143.208 43.6243 143.436 43.6428C143.67 43.6551 143.864 43.6766 144.018 43.7074V46.782C143.876 46.7327 143.652 46.6896 143.344 46.6527C143.042 46.6096 142.75 46.5881 142.467 46.5881C141.857 46.5881 141.309 46.7204 140.823 46.9851C140.343 47.2436 139.965 47.6037 139.688 48.0653C139.411 48.527 139.272 49.0594 139.272 49.6626V58H135.93ZM151.413 58.277C149.991 58.277 148.763 57.9815 147.729 57.3906C146.701 56.7936 145.91 55.9503 145.356 54.8608C144.802 53.7652 144.525 52.4756 144.525 50.9922C144.525 49.5334 144.802 48.2531 145.356 47.1513C145.916 46.0433 146.698 45.1816 147.701 44.5661C148.704 43.9444 149.883 43.6335 151.237 43.6335C152.111 43.6335 152.936 43.7751 153.712 44.0582C154.493 44.3352 155.183 44.7661 155.78 45.3509C156.383 45.9356 156.857 46.6804 157.202 47.5852C157.547 48.4839 157.719 49.5549 157.719 50.7983V51.8232H146.095V49.5703H154.515C154.509 48.9302 154.37 48.3608 154.1 47.8622C153.829 47.3575 153.45 46.9605 152.964 46.6712C152.484 46.3819 151.924 46.2372 151.284 46.2372C150.6 46.2372 150 46.4034 149.483 46.7358C148.966 47.062 148.563 47.4929 148.274 48.0284C147.99 48.5578 147.846 49.1394 147.84 49.7734V51.7401C147.84 52.5649 147.99 53.2727 148.292 53.8636C148.594 54.4484 149.015 54.8977 149.557 55.2116C150.099 55.5194 150.733 55.6733 151.459 55.6733C151.945 55.6733 152.385 55.6056 152.779 55.4702C153.173 55.3286 153.515 55.1224 153.804 54.8516C154.093 54.5807 154.312 54.2453 154.46 53.8452L157.58 54.196C157.383 55.0208 157.008 55.741 156.454 56.3565C155.906 56.9659 155.204 57.4399 154.349 57.7784C153.493 58.1108 152.515 58.277 151.413 58.277ZM160.026 58V43.8182H163.221V46.228H163.387C163.683 45.4155 164.172 44.7815 164.855 44.326C165.539 43.8643 166.354 43.6335 167.302 43.6335C168.262 43.6335 169.072 43.8674 169.73 44.3352C170.395 44.7969 170.863 45.4278 171.134 46.228H171.281C171.595 45.4401 172.125 44.8123 172.87 44.3445C173.62 43.8705 174.51 43.6335 175.538 43.6335C176.843 43.6335 177.908 44.0459 178.732 44.8707C179.557 45.6955 179.97 46.8989 179.97 48.4808V58H176.618V48.9979C176.618 48.1177 176.384 47.4744 175.916 47.0682C175.449 46.6558 174.876 46.4496 174.199 46.4496C173.393 46.4496 172.762 46.7019 172.306 47.2067C171.857 47.7053 171.632 48.3546 171.632 49.1548V58H168.355V48.8594C168.355 48.1269 168.133 47.5421 167.69 47.1051C167.253 46.6681 166.68 46.4496 165.972 46.4496C165.492 46.4496 165.055 46.5727 164.661 46.8189C164.267 47.0589 163.954 47.4006 163.72 47.8438C163.486 48.2808 163.369 48.7917 163.369 49.3764V58H160.026ZM182.84 58V43.8182H186.183V58H182.84ZM184.521 41.8054C183.991 41.8054 183.536 41.63 183.154 41.2791C182.773 40.9221 182.582 40.4943 182.582 39.9957C182.582 39.491 182.773 39.0632 183.154 38.7124C183.536 38.3553 183.991 38.1768 184.521 38.1768C185.056 38.1768 185.512 38.3553 185.887 38.7124C186.269 39.0632 186.46 39.491 186.46 39.9957C186.46 40.4943 186.269 40.9221 185.887 41.2791C185.512 41.63 185.056 41.8054 184.521 41.8054ZM198.139 52.0355V43.8182H201.481V58H198.24V55.4794H198.093C197.773 56.2734 197.246 56.9228 196.514 57.4276C195.787 57.9323 194.892 58.1847 193.827 58.1847C192.898 58.1847 192.076 57.9785 191.362 57.5661C190.654 57.1475 190.1 56.5412 189.7 55.7472C189.3 54.947 189.1 53.9806 189.1 52.848V43.8182H192.442V52.331C192.442 53.2296 192.688 53.9437 193.181 54.473C193.673 55.0024 194.319 55.267 195.12 55.267C195.612 55.267 196.089 55.147 196.551 54.907C197.012 54.6669 197.391 54.3099 197.686 53.8359C197.988 53.3558 198.139 52.7557 198.139 52.0355ZM207.74 49.6903V58H204.398V43.8182H207.593V46.228H207.759C208.085 45.4339 208.605 44.803 209.319 44.3352C210.039 43.8674 210.929 43.6335 211.988 43.6335C212.966 43.6335 213.819 43.8428 214.545 44.2614C215.278 44.6799 215.844 45.2862 216.244 46.0803C216.65 46.8743 216.85 47.8376 216.844 48.9702V58H213.502V49.4872C213.502 48.5393 213.256 47.7976 212.763 47.2621C212.277 46.7266 211.603 46.4588 210.741 46.4588C210.156 46.4588 209.636 46.5881 209.181 46.8466C208.731 47.099 208.378 47.4652 208.119 47.9453C207.867 48.4254 207.74 49.0071 207.74 49.6903Z" fill="black"/>
<defs>
<filter id="filter0_d_38_5596" x="0" y="0" width="338" height="108" filterUnits="userSpaceOnUse" color-interpolation-filters="sRGB">
<feFlood flood-opacity="0" result="BackgroundImageFix"/>
<feColorMatrix in="SourceAlpha" type="matrix" values="0 0 0 0 0 0 0 0 0 0 0 0 0 0 0 0 0 0 127 0" result="hardAlpha"/>
<feOffset dy="4"/>
<feGaussianBlur stdDeviation="2"/>
<feComposite in2="hardAlpha" operator="out"/>
<feColorMatrix type="matrix" values="0 0 0 0 0 0 0 0 0 0 0 0 0 0 0 0 0 0 0.25 0"/>
<feBlend mode="normal" in2="BackgroundImageFix" result="effect1_dropShadow_38_5596"/>
<feBlend mode="normal" in="SourceGraphic" in2="effect1_dropShadow_38_5596" result="shape"/>
</filter>
</defs>
</svg>
